# xmcd
#
# Track frame offsets: 
#        150
#        35430
#        67079
#        86776
#        102347
#        126361
#        156285
#        176880
#        191546
#        222980
#        246867
#        283298
#        308383
#
# Disc length: 4255 seconds
#
# Revision: 0
# Processed by: cddbd v1.5.2PL0 Copyright (c) Steve Scherf et al.
# Submitted via: ExactAudioCopy v0.99pb5
#
DISCID=c4109d0d
DTITLE=Roman Pokorný - 2 faces Blues  - Sidde 2
DYEAR=2004
DGENRE=Jazz
TTITLE0=stormy monday
TTITLE1=all your love
TTITLE2=blew me clean away
TTITLE3=complication
TTITLE4=it aint right
TTITLE5=hootchie cootchie man
TTITLE6=black bird woman
TTITLE7=one good reason
TTITLE8=i loved another woman
TTITLE9=cocaine
TTITLE10=i got ramblin
TTITLE11=all down to you
TTITLE12=text
EXTD=
EXTT0=
EXTT1=
EXTT2=
EXTT3=
EXTT4=
EXTT5=
EXTT6=
EXTT7=
EXTT8=
EXTT9=
EXTT10=
EXTT11=
EXTT12=
PLAYORDER=
